<?xml version="1.0" encoding="UTF-8"?>
<svg id="Layer_2" data-name="Layer 2" xmlns="http://www.w3.org/2000/svg" xmlns:xlink="http://www.w3.org/1999/xlink" viewBox="0 0 1080 620">
  <defs>
    <style>
      .cls-1 {
        fill: url(#linear-gradient-75);
      }

      .cls-2 {
        fill: url(#linear-gradient-2);
      }

      .cls-3 {
        fill: url(#linear-gradient-51);
      }

      .cls-4 {
        fill: url(#linear-gradient-17);
      }

      .cls-5 {
        fill: url(#linear-gradient-87);
      }

      .cls-6 {
        fill: url(#linear-gradient-80);
      }

      .cls-7 {
        fill: url(#linear-gradient-43);
      }

      .cls-8 {
        fill: url(#linear-gradient-15);
      }

      .cls-9 {
        fill: url(#linear-gradient-58);
      }

      .cls-10 {
        fill: url(#linear-gradient-69);
      }

      .cls-11 {
        fill: url(#linear-gradient-81);
      }

      .cls-12 {
        fill: url(#linear-gradient-18);
      }

      .cls-13 {
        fill: url(#linear-gradient-56);
      }

      .cls-14 {
        fill: url(#linear-gradient-40);
      }

      .cls-15 {
        fill: url(#linear-gradient-52);
      }

      .cls-16 {
        fill: url(#linear-gradient-28);
      }

      .cls-17 {
        fill: url(#linear-gradient-14);
      }

      .cls-18 {
        fill: url(#linear-gradient-36);
      }

      .cls-19 {
        fill: url(#linear-gradient-78);
      }

      .cls-20 {
        fill: url(#linear-gradient-20);
      }

      .cls-21 {
        fill: url(#linear-gradient-6);
      }

      .cls-22 {
        clip-path: url(#clippath-2);
      }

      .cls-23 {
        fill: url(#linear-gradient-53);
      }

      .cls-24 {
        fill: #205c7a;
      }

      .cls-25 {
        fill: url(#linear-gradient-60);
      }

      .cls-26 {
        fill: url(#linear-gradient-84);
      }

      .cls-27 {
        fill: url(#linear-gradient-35);
      }

      .cls-28 {
        fill: url(#linear-gradient-48);
      }

      .cls-29 {
        fill: url(#linear-gradient-32);
      }

      .cls-30 {
        fill: url(#linear-gradient-11);
      }

      .cls-31 {
        fill: url(#linear-gradient-50);
      }

      .cls-32 {
        fill: url(#linear-gradient-63);
      }

      .cls-33 {
        fill: url(#linear-gradient-67);
      }

      .cls-34 {
        fill: url(#linear-gradient-86);
      }

      .cls-35 {
        fill: url(#linear-gradient-39);
      }

      .cls-36 {
        clip-path: url(#clippath-1);
      }

      .cls-37 {
        clip-path: url(#clippath-4);
      }

      .cls-38 {
        fill: url(#linear-gradient-10);
      }

      .cls-39 {
        fill: #3f6c8d;
      }

      .cls-40 {
        fill: url(#linear-gradient-59);
      }

      .cls-41 {
        fill: url(#linear-gradient-49);
      }

      .cls-42 {
        fill: url(#linear-gradient-37);
      }

      .cls-43 {
        fill: url(#linear-gradient-82);
      }

      .cls-44 {
        fill: url(#linear-gradient-16);
      }

      .cls-45 {
        fill: url(#linear-gradient-31);
      }

      .cls-46 {
        fill: url(#linear-gradient-85);
      }

      .cls-47 {
        fill: url(#linear-gradient-61);
      }

      .cls-48 {
        fill: url(#linear-gradient-68);
      }

      .cls-49 {
        fill: url(#linear-gradient-62);
      }

      .cls-50 {
        fill: url(#linear-gradient-41);
      }

      .cls-51 {
        fill: url(#linear-gradient-76);
      }

      .cls-52 {
        fill: url(#linear-gradient-21);
      }

      .cls-53 {
        fill: #395c93;
      }

      .cls-54 {
        fill: url(#linear-gradient-72);
      }

      .cls-55 {
        fill: #2e4a76;
      }

      .cls-56 {
        fill: url(#linear-gradient-25);
      }

      .cls-57 {
        fill: url(#linear-gradient-89);
      }

      .cls-58 {
        fill: url(#linear-gradient-5);
      }

      .cls-59 {
        fill: url(#linear-gradient-64);
      }

      .cls-60 {
        fill: url(#linear-gradient-83);
      }

      .cls-61 {
        fill: url(#linear-gradient-54);
      }

      .cls-62 {
        fill: url(#linear-gradient-45);
      }

      .cls-63 {
        fill: url(#linear-gradient-55);
      }

      .cls-64 {
        clip-path: url(#clippath);
      }

      .cls-65 {
        fill: url(#linear-gradient-34);
      }

      .cls-66 {
        fill: url(#linear-gradient-65);
      }

      .cls-67 {
        fill: url(#linear-gradient-70);
      }

      .cls-68 {
        fill: none;
      }

      .cls-69 {
        fill: url(#linear-gradient-79);
      }

      .cls-70 {
        fill: url(#linear-gradient-88);
      }

      .cls-71 {
        clip-path: url(#clippath-3);
      }

      .cls-72 {
        fill: url(#linear-gradient-7);
      }

      .cls-73 {
        fill: url(#linear-gradient-66);
      }

      .cls-74 {
        fill: url(#linear-gradient-24);
      }

      .cls-75 {
        fill: url(#linear-gradient-73);
      }

      .cls-76 {
        fill: url(#linear-gradient-9);
      }

      .cls-77 {
        fill: url(#linear-gradient-22);
      }

      .cls-78 {
        fill: url(#linear-gradient-74);
      }

      .cls-79 {
        fill: url(#linear-gradient-42);
      }

      .cls-80 {
        fill: url(#linear-gradient-3);
      }

      .cls-81 {
        fill: url(#linear-gradient);
      }

      .cls-82 {
        fill: url(#linear-gradient-27);
      }

      .cls-83 {
        fill: url(#linear-gradient-33);
      }

      .cls-84 {
        fill: url(#linear-gradient-38);
      }

      .cls-85 {
        fill: url(#linear-gradient-29);
      }

      .cls-86 {
        fill: url(#linear-gradient-30);
      }

      .cls-87 {
        fill: url(#linear-gradient-23);
      }

      .cls-88 {
        fill: url(#linear-gradient-19);
      }

      .cls-89 {
        fill: url(#linear-gradient-71);
      }

      .cls-90 {
        fill: url(#linear-gradient-4);
      }

      .cls-91 {
        fill: url(#linear-gradient-77);
      }

      .cls-92 {
        fill: url(#linear-gradient-8);
      }

      .cls-93 {
        fill: url(#linear-gradient-44);
      }

      .cls-94 {
        fill: url(#linear-gradient-57);
      }

      .cls-95 {
        fill: url(#linear-gradient-47);
      }

      .cls-96 {
        fill: url(#linear-gradient-46);
      }

      .cls-97 {
        fill: url(#linear-gradient-12);
      }

      .cls-98 {
        fill: url(#linear-gradient-13);
      }

      .cls-99 {
        fill: url(#linear-gradient-26);
      }
    </style>
    <linearGradient id="linear-gradient" x1="491.19" y1="596.63" x2="514.64" y2="596.63" gradientUnits="userSpaceOnUse">
      <stop offset="0" stop-color="#3f6c8d"/>
      <stop offset="1" stop-color="#2e4a76"/>
    </linearGradient>
    <linearGradient id="linear-gradient-2" x1="516.09" y1="597.98" x2="532.81" y2="597.98" xlink:href="#linear-gradient"/>
    <linearGradient id="linear-gradient-3" x1="534.26" y1="598" x2="555.1" y2="598" xlink:href="#linear-gradient"/>
    <linearGradient id="linear-gradient-4" x1="556.13" y1="598.14" x2="576.51" y2="598.14" xlink:href="#linear-gradient"/>
    <linearGradient id="linear-gradient-5" x1="576.88" y1="597.92" x2="593.23" y2="597.92" xlink:href="#linear-gradient"/>
    <linearGradient id="linear-gradient-6" x1="605.05" y1="596.55" x2="624.1" y2="596.55" xlink:href="#linear-gradient"/>
    <linearGradient id="linear-gradient-7" x1="626.84" y1="598" x2="633.27" y2="598" xlink:href="#linear-gradient"/>
    <linearGradient id="linear-gradient-8" x1="635.51" y1="598" x2="653.94" y2="598" xlink:href="#linear-gradient"/>
    <linearGradient id="linear-gradient-9" x1="655.63" y1="597.98" x2="672.36" y2="597.98" xlink:href="#linear-gradient"/>
    <linearGradient id="linear-gradient-10" x1="674.64" y1="597.92" x2="690.99" y2="597.92" xlink:href="#linear-gradient"/>
    <linearGradient id="linear-gradient-11" x1="692.65" y1="597.92" x2="709" y2="597.92" xlink:href="#linear-gradient"/>
    <linearGradient id="linear-gradient-12" x1="710.99" y1="597.98" x2="727.71" y2="597.98" xlink:href="#linear-gradient"/>
    <linearGradient id="linear-gradient-13" x1="739.74" x2="769.95" xlink:href="#linear-gradient"/>
    <linearGradient id="linear-gradient-14" x1="769.95" y1="598" x2="788.62" y2="598" xlink:href="#linear-gradient"/>
    <linearGradient id="linear-gradient-15" x1="790.28" y1="598" x2="808.71" y2="598" xlink:href="#linear-gradient"/>
    <linearGradient id="linear-gradient-16" x1="811.07" y1="598.4" x2="831.45" y2="598.4" xlink:href="#linear-gradient"/>
    <linearGradient id="linear-gradient-17" x1="832.65" y1="598.23" x2="853.19" y2="598.23" xlink:href="#linear-gradient"/>
    <linearGradient id="linear-gradient-18" x1="852.36" y1="598.06" x2="870.33" y2="598.06" xlink:href="#linear-gradient"/>
    <linearGradient id="linear-gradient-19" x1="872.32" y1="598" x2="889.5" y2="598" xlink:href="#linear-gradient"/>
    <linearGradient id="linear-gradient-20" x1="889.49" y1="621.35" x2="1023.74" y2="522.16" gradientUnits="userSpaceOnUse">
      <stop offset=".25" stop-color="#3f6c8d"/>
      <stop offset=".53" stop-color="#2e4a76"/>
    </linearGradient>
    <clipPath id="clippath">
      <path class="cls-20" d="M915.24,603.15c.8,3.52,3.17,5.52,7.47,5.52,4.73,0,6.56-2.3,6.56-5.13s-1.38-4.73-7.22-6.17c-6.16-1.52-8.57-3.57-8.57-7.52s2.82-7.23,8.87-7.23,8.96,3.76,9.32,7.25h-2.9c-.57-2.74-2.33-4.82-6.54-4.82-3.72,0-5.76,1.71-5.76,4.59s1.7,3.96,6.69,5.18c7.84,1.93,9.1,5.03,9.1,8.46,0,4.25-3.12,7.76-9.69,7.76-6.94,0-9.69-3.93-10.23-7.89h2.9Z"/>
    </clipPath>
    <linearGradient id="linear-gradient-21" x1="889.35" y1="621.17" x2="1023.6" y2="521.97" xlink:href="#linear-gradient-20"/>
    <linearGradient id="linear-gradient-22" x1="895.78" y1="629.87" x2="1030.03" y2="530.67" xlink:href="#linear-gradient-20"/>
    <linearGradient id="linear-gradient-23" x1="895.78" y1="629.87" x2="1030.03" y2="530.67" xlink:href="#linear-gradient-20"/>
    <clipPath id="clippath-1">
      <path class="cls-87" d="M943.59,585.52h-9.14v-2.51h21.17v2.51h-9.17v25.19h-2.86v-25.19Z"/>
    </clipPath>
    <linearGradient id="linear-gradient-24" x1="897.4" y1="632.06" x2="1031.65" y2="532.86" xlink:href="#linear-gradient-20"/>
    <linearGradient id="linear-gradient-25" x1="906.19" y1="643.95" x2="1040.44" y2="544.76" xlink:href="#linear-gradient-20"/>
    <linearGradient id="linear-gradient-26" x1="906.19" y1="643.95" x2="1040.44" y2="544.76" xlink:href="#linear-gradient-20"/>
    <clipPath id="clippath-2">
      <path class="cls-99" d="M982.56,596.68c0,7.58-4.14,14.42-12.77,14.42-7.96,0-12.5-6.29-12.5-14.24s4.51-14.24,12.8-14.24c7.69,0,12.47,5.92,12.47,14.07Zm-22.28,.06c0,6.2,3.31,11.86,9.65,11.86,6.83,0,9.64-5.6,9.64-11.88s-3.18-11.61-9.59-11.61c-6.74,0-9.7,5.53-9.7,11.63Z"/>
    </clipPath>
    <linearGradient id="linear-gradient-27" x1="902.86" y1="639.45" x2="1037.11" y2="540.25" xlink:href="#linear-gradient-20"/>
    <linearGradient id="linear-gradient-28" x1="903.11" y1="639.78" x2="1037.36" y2="540.59" xlink:href="#linear-gradient-20"/>
    <linearGradient id="linear-gradient-29" x1="903.44" y1="640.23" x2="1037.69" y2="541.04" xlink:href="#linear-gradient-20"/>
    <linearGradient id="linear-gradient-30" x1="903.77" y1="640.68" x2="1038.02" y2="541.49" xlink:href="#linear-gradient-20"/>
    <linearGradient id="linear-gradient-31" x1="904.1" y1="641.14" x2="1038.36" y2="541.94" xlink:href="#linear-gradient-20"/>
    <linearGradient id="linear-gradient-32" x1="904.44" y1="641.59" x2="1038.69" y2="542.39" xlink:href="#linear-gradient-20"/>
    <linearGradient id="linear-gradient-33" x1="904.77" y1="642.04" x2="1039.02" y2="542.84" xlink:href="#linear-gradient-20"/>
    <linearGradient id="linear-gradient-34" x1="905.1" y1="642.49" x2="1039.35" y2="543.29" xlink:href="#linear-gradient-20"/>
    <linearGradient id="linear-gradient-35" x1="905.44" y1="642.94" x2="1039.69" y2="543.74" xlink:href="#linear-gradient-20"/>
    <linearGradient id="linear-gradient-36" x1="905.77" y1="643.39" x2="1040.02" y2="544.19" xlink:href="#linear-gradient-20"/>
    <linearGradient id="linear-gradient-37" x1="906.1" y1="643.84" x2="1040.35" y2="544.64" xlink:href="#linear-gradient-20"/>
    <linearGradient id="linear-gradient-38" x1="906.44" y1="644.29" x2="1040.69" y2="545.1" xlink:href="#linear-gradient-20"/>
    <linearGradient id="linear-gradient-39" x1="906.77" y1="644.74" x2="1041.02" y2="545.55" xlink:href="#linear-gradient-20"/>
    <linearGradient id="linear-gradient-40" x1="907.1" y1="645.19" x2="1041.35" y2="546" xlink:href="#linear-gradient-20"/>
    <linearGradient id="linear-gradient-41" x1="907.44" y1="645.64" x2="1041.69" y2="546.45" xlink:href="#linear-gradient-20"/>
    <linearGradient id="linear-gradient-42" x1="907.77" y1="646.09" x2="1042.02" y2="546.9" xlink:href="#linear-gradient-20"/>
    <linearGradient id="linear-gradient-43" x1="908.1" y1="646.55" x2="1042.35" y2="547.35" xlink:href="#linear-gradient-20"/>
    <linearGradient id="linear-gradient-44" x1="908.44" y1="647" x2="1042.69" y2="547.8" xlink:href="#linear-gradient-20"/>
    <linearGradient id="linear-gradient-45" x1="908.77" y1="647.45" x2="1043.02" y2="548.25" xlink:href="#linear-gradient-20"/>
    <linearGradient id="linear-gradient-46" x1="909.1" y1="647.9" x2="1043.35" y2="548.7" xlink:href="#linear-gradient-20"/>
    <linearGradient id="linear-gradient-47" x1="909.43" y1="648.34" x2="1043.68" y2="549.15" xlink:href="#linear-gradient-20"/>
    <linearGradient id="linear-gradient-48" x1="902.16" y1="638.51" x2="1036.42" y2="539.31" xlink:href="#linear-gradient-20"/>
    <linearGradient id="linear-gradient-49" x1="902.77" y1="639.33" x2="1037.02" y2="540.14" xlink:href="#linear-gradient-20"/>
    <linearGradient id="linear-gradient-50" x1="903.11" y1="639.78" x2="1037.36" y2="540.59" xlink:href="#linear-gradient-20"/>
    <linearGradient id="linear-gradient-51" x1="903.44" y1="640.23" x2="1037.69" y2="541.04" xlink:href="#linear-gradient-20"/>
    <linearGradient id="linear-gradient-52" x1="903.77" y1="640.68" x2="1038.02" y2="541.49" xlink:href="#linear-gradient-20"/>
    <linearGradient id="linear-gradient-53" x1="904.1" y1="641.14" x2="1038.36" y2="541.94" xlink:href="#linear-gradient-20"/>
    <linearGradient id="linear-gradient-54" x1="904.44" y1="641.59" x2="1038.69" y2="542.39" xlink:href="#linear-gradient-20"/>
    <linearGradient id="linear-gradient-55" x1="904.77" y1="642.04" x2="1039.02" y2="542.84" xlink:href="#linear-gradient-20"/>
    <linearGradient id="linear-gradient-56" x1="905.1" y1="642.49" x2="1039.35" y2="543.29" xlink:href="#linear-gradient-20"/>
    <linearGradient id="linear-gradient-57" x1="905.44" y1="642.94" x2="1039.69" y2="543.74" xlink:href="#linear-gradient-20"/>
    <linearGradient id="linear-gradient-58" x1="905.77" y1="643.39" x2="1040.02" y2="544.19" xlink:href="#linear-gradient-20"/>
    <linearGradient id="linear-gradient-59" x1="906.1" y1="643.84" x2="1040.35" y2="544.64" xlink:href="#linear-gradient-20"/>
    <linearGradient id="linear-gradient-60" x1="906.44" y1="644.29" x2="1040.69" y2="545.1" xlink:href="#linear-gradient-20"/>
    <linearGradient id="linear-gradient-61" x1="906.77" y1="644.74" x2="1041.02" y2="545.55" xlink:href="#linear-gradient-20"/>
    <linearGradient id="linear-gradient-62" x1="907.1" y1="645.19" x2="1041.35" y2="546" xlink:href="#linear-gradient-20"/>
    <linearGradient id="linear-gradient-63" x1="907.44" y1="645.64" x2="1041.69" y2="546.45" xlink:href="#linear-gradient-20"/>
    <linearGradient id="linear-gradient-64" x1="907.77" y1="646.09" x2="1042.02" y2="546.9" xlink:href="#linear-gradient-20"/>
    <linearGradient id="linear-gradient-65" x1="908.1" y1="646.55" x2="1042.35" y2="547.35" xlink:href="#linear-gradient-20"/>
    <linearGradient id="linear-gradient-66" x1="908.44" y1="647" x2="1042.69" y2="547.8" xlink:href="#linear-gradient-20"/>
    <linearGradient id="linear-gradient-67" x1="908.77" y1="647.45" x2="1043.02" y2="548.25" xlink:href="#linear-gradient-20"/>
    <linearGradient id="linear-gradient-68" x1="909.1" y1="647.9" x2="1043.35" y2="548.7" xlink:href="#linear-gradient-20"/>
    <linearGradient id="linear-gradient-69" x1="909.43" y1="648.35" x2="1043.69" y2="549.15" xlink:href="#linear-gradient-20"/>
    <linearGradient id="linear-gradient-70" x1="909.77" y1="648.8" x2="1044.02" y2="549.6" xlink:href="#linear-gradient-20"/>
    <linearGradient id="linear-gradient-71" x1="910.1" y1="649.25" x2="1044.35" y2="550.05" xlink:href="#linear-gradient-20"/>
    <linearGradient id="linear-gradient-72" x1="910.43" y1="649.7" x2="1044.68" y2="550.51" xlink:href="#linear-gradient-20"/>
    <linearGradient id="linear-gradient-73" x1="910.62" y1="649.96" x2="1044.88" y2="550.76" xlink:href="#linear-gradient-20"/>
    <linearGradient id="linear-gradient-74" x1="916.05" y1="657.31" x2="1050.3" y2="558.11" xlink:href="#linear-gradient-20"/>
    <linearGradient id="linear-gradient-75" x1="916.05" y1="657.31" x2="1050.3" y2="558.11" xlink:href="#linear-gradient-20"/>
    <clipPath id="clippath-3">
      <path class="cls-1" d="M991.32,598.1v12.6h-2.84v-27.7h10.33c5.56,0,8.52,3,8.52,7.34,0,3.56-2.08,5.8-4.97,6.5,2.58,.64,4.51,2.42,4.51,7.18v1.12c0,1.93-.13,4.45,.36,5.56h-2.81c-.51-1.19-.43-3.38-.43-5.86v-.66c0-4.28-1.24-6.09-6.39-6.09h-6.29Zm0-2.48h6.39c4.58,0,6.66-1.72,6.66-5.12,0-3.2-2.08-5.01-6.15-5.01h-6.9v10.13Z"/>
    </clipPath>
    <linearGradient id="linear-gradient-76" x1="910.83" y1="650.23" x2="1045.08" y2="551.04" xlink:href="#linear-gradient-20"/>
    <linearGradient id="linear-gradient-77" x1="913.13" y1="653.35" x2="1047.38" y2="554.15" xlink:href="#linear-gradient-20"/>
    <linearGradient id="linear-gradient-78" x1="912.84" y1="652.95" x2="1047.09" y2="553.76" xlink:href="#linear-gradient-20"/>
    <linearGradient id="linear-gradient-79" x1="913.1" y1="653.31" x2="1047.35" y2="554.11" xlink:href="#linear-gradient-20"/>
    <linearGradient id="linear-gradient-80" x1="913.43" y1="653.76" x2="1047.68" y2="554.56" xlink:href="#linear-gradient-20"/>
    <linearGradient id="linear-gradient-81" x1="913.77" y1="654.21" x2="1048.02" y2="555.01" xlink:href="#linear-gradient-20"/>
    <linearGradient id="linear-gradient-82" x1="916.67" y1="658.13" x2="1050.92" y2="558.94" xlink:href="#linear-gradient-20"/>
    <linearGradient id="linear-gradient-83" x1="924.82" y1="669.18" x2="1059.07" y2="569.98" xlink:href="#linear-gradient-20"/>
    <linearGradient id="linear-gradient-84" x1="924.82" y1="669.18" x2="1059.07" y2="569.98" xlink:href="#linear-gradient-20"/>
    <clipPath id="clippath-4">
      <path class="cls-26" d="M1030.59,597.4h-13.97v10.81h15.32l-.39,2.51h-17.73v-27.7h17.45v2.51h-14.65v9.37h13.97v2.51Z"/>
    </clipPath>
    <linearGradient id="linear-gradient-85" x1="924.89" y1="669.27" x2="1059.14" y2="570.07" xlink:href="#linear-gradient-20"/>
    <linearGradient id="linear-gradient-86" x1="895.78" y1="629.87" x2="1030.03" y2="530.67" xlink:href="#linear-gradient-20"/>
    <linearGradient id="linear-gradient-87" x1="906.19" y1="643.95" x2="1040.44" y2="544.76" xlink:href="#linear-gradient-20"/>
    <linearGradient id="linear-gradient-88" x1="916.05" y1="657.31" x2="1050.3" y2="558.11" xlink:href="#linear-gradient-20"/>
    <linearGradient id="linear-gradient-89" x1="924.82" y1="669.18" x2="1059.07" y2="569.98" xlink:href="#linear-gradient-20"/>
  </defs>
  <path class="cls-24" d="M736.2,434.38s0,.03,0,.04c0,.15,0,.31,0,.45v-.5Z"/>
  <g>
    <path class="cls-55" d="M207.66,252.5l.48,2.33c-3.36,1.23-6.68,2.51-9.93,3.94-.02-.48-.02-.93-.04-1.41l-.5,.5c0-1.29,0-2.75-.02-4.32,3.34-.52,6.68-.86,10.01-1.03Z"/>
    <path class="cls-55" d="M185.74,257.86v-1.75c-5.13,1.41-10.21,3.26-15.14,5.57-25.39,11.72-41.18,35.51-47.01,62.23-1.67,6.03-2.57,12.83-4.97,18.28-.78-.34-2.03-.99-3.28-1.93-15.1-12.06-25.9-29.7-36.23-46.08-12.53-20.39-22.7-42.1-30.46-64.84-7.6-22.4-14.18-46-15.16-69.49-.34-13.99,1.05-31.53,14.72-38.42,5.55-2.25,11.4-1.67,18.48-.99,5.97,.66,12.16,1.49,18.38,2.13,43.45,4.73,87.95-1.45,128.66-17.17l-.76-2.25c-11.78,3.54-23.73,6.35-35.77,8.38-23.99,4.18-48.52,5.17-72.7,2.79-12.27-1.19-23.95-3.5-36.21-5.69-7.56-1.25-17.96-2.57-26.26,1.19-19.1,8.34-24.27,31.53-24.43,50.13,.18,46.06,19.8,105.12,40.92,145.87,11.14,20.19,23.71,41.16,43.43,54.69,8.5,6.03,22.66,8.81,31.51,.22,6.78-6.41,8.1-15.48,9.43-23.56,3.32-27.73,9.77-48.92,33.22-66.11,3.24-2.41,6.68-4.6,10.29-6.59-.04-2.15-.1-4.28-.16-6.41l-.52-.22Zm-67.86,85.59c.06-.08,.14-.14,.24-.22-.3,.5-.48,.5-.24,.22Z"/>
    <path class="cls-53" d="M302.28,19.64c-20.21,6.31-31.23,26.36-46.85,39.53-23.2,21.19-55.05,31.14-86.08,30.18l-.02-1.99c28.81-1.05,57.04-10.82,78.03-30.28,10.19-9.27,18.02-20.27,27.39-30.52,29.76-33.72,76.93-19.93,105.9,7.24,13.97,13.65,22.44,32.35,28.95,50,5.33,14.94,10.15,29.74,14.84,44.66-3.12-.56-6.47-.9-9.97-.9-2.51,0-5.59,.22-8.89,.66-.38-1.45-.74-2.88-1.11-4.32-3.04-11.8-6.23-23.5-9.91-34.88-5.57-16.73-11.9-32.75-23.81-45.48-17.53-17.21-43.59-30.92-68.46-23.91Z"/>
    <path class="cls-53" d="M442.42,221.45c-1.41,10.52-8.67,20.59-19.34,22.44-1.79,.32-3.68,.4-5.67,.2-2.13-.18-4.22-.62-6.25-1.21-3.5-1.03-6.84-2.53-9.83-3.9-8.81-4.73-17.61-8.59-26.46-11.6-3.96-1.35-7.92-2.53-11.92-3.5-12.08-3.04-24.33-4.48-36.96-4.34-4.22,.04-8.48,.26-12.77,.66-7.7,.72-15.56,1.99-23.61,3.84l-.64-1.87c6.8-3.44,14.01-6.23,21.45-8.38,3.88-1.11,7.82-2.05,11.82-2.81,13.31-2.53,27.14-3.06,40.7-1.59,4.02,.42,8,1.03,11.94,1.81,8.63,1.71,17.05,4.28,25.07,7.66l8.51,3.3c1.25,.46,2.45,.92,3.6,1.31,2.25,.78,4.36,1.35,6.55,1.49,.66,0,.96-.12,1.11-.22,6.64-6.19,1.13-32.27-1.49-44.58-.26-1.27-.5-2.41-.7-3.34-2.75-12.35-5.81-24.65-8.95-36.94,2.23-.24,4.26-.38,5.89-.38,5.23,0,10.05,.97,14.13,2.29,1.13,3.56,2.23,7.12,3.34,10.7,.18,.56,.34,1.09,.52,1.65,1.11,4.08,2.29,8.2,3.42,12.37,4.85,17.79,9.17,36.25,6.55,54.93Z"/>
    <rect class="cls-53" x="99.47" y="170.48" width="19.08" height="73.93" transform="translate(-69.11 55.17) rotate(-21.75)"/>
    <rect class="cls-53" x="99.47" y="170.48" width="19.08" height="73.93" transform="translate(-43.27 385.56) rotate(-111.75)"/>
    <circle class="cls-55" cx="317.45" cy="94.78" r="11.25"/>
    <circle class="cls-55" cx="317.45" cy="94.78" r="11.25"/>
    <circle class="cls-55" cx="301.39" cy="130.68" r="11.25"/>
    <circle class="cls-55" cx="337.72" cy="145.59" r="11.25"/>
    <circle class="cls-55" cx="352.34" cy="110.36" r="11.25"/>
  </g>
  <g>
    <path class="cls-68" d="M903.32,347.09l-45.28,.04c6.95,29.42,14.06,58.16,20.37,82.78,8.14-27.65,16.62-55.26,24.91-82.82Z"/>
    <path class="cls-68" d="M774.98,347.21l25.08-.02c-7.79-29.1-15.97-58.49-25.08-86.34v86.36Z"/>
    <path class="cls-68" d="M564.14,323.5c-5.47,0-10.94,.5-15.41,1.99-.06,7.29-.06,14.61-.03,21.93l58.6-.05c-9.41-17.24-26.96-23.87-43.16-23.87Z"/>
    <path class="cls-68" d="M229.31,347.71l66.4-.06c-19.87-42.09-42.81-84.2-63.73-120.62-1.84,40.23-2.73,80.45-2.68,120.68Z"/>
    <path class="cls-68" d="M370.24,347.58h-6.88c1.97,4.43,3.93,8.83,5.87,13.21,.36-4.4,.68-8.81,1.01-13.21Z"/>
    <path class="cls-68" d="M933.74,347.06l39.6-.04c-.26-37.49-1.59-74.94-3.93-108.56-12.53,36.73-24.59,72.64-35.67,108.59Z"/>
    <path class="cls-39" d="M442.32,148.46c-3.94,0-7.38,1.45-10.39,4.04-6.25,5.35-10.62,15.54-13.71,27.67-3.4,13.39-5.21,29.15-6.17,43.31-.48,7.02-.74,13.65-.9,19.4-.14,5.91-.18,10.9-.18,14.48-.74,24.75-1.11,49.52-1.11,74.27l-38.75,.04h-.88c.3-3.98,.58-7.94,.86-11.92,2.15-30.8,3.56-61.57,3.78-92.37,.04-5.39,.04-10.78,0-16.17-.02-4.66-.08-9.33-.18-14.01-3.84-24.43-11.36-47.03-26.14-48.64-.56-.06-1.13-.1-1.71-.1,0,0,.72-.52,2.01-1.31,4.12-2.47,14.13-7.64,25.84-7.64,4.48,0,11.92,.99,18.88,2.49h2.49c4.12-.95,8.63-1.69,12.51-2.11,2.23-.24,4.26-.38,5.89-.38,5.23,0,10.05,.97,14.13,2.29,8.36,2.63,13.73,6.66,13.73,6.66Z"/>
    <path class="cls-24" d="M369.22,360.79c-1.93-4.38-3.89-8.78-5.87-13.2l-67.64,.06c34.93,73.97,60.38,147.87,48.65,190.66h11.93s15.91,1.99,32.32,1.99c37.79,0,53.2-8.45,53.2-8.45-30.83,0-30.83-88.01-30.83-109.39-.75-24.97-1.12-49.94-1.12-74.9l-39.64,.04c-.33,4.4-.66,8.81-1.01,13.21Z"/>
    <path class="cls-24" d="M197.18,434.88l.5-1.99v.99c-.5,6.96-.5,13.92-.99,20.89-1.99,33.32-8.95,76.57-30.33,76.57,0,0,12.43,8.95,27.84,8.95,3.98,0,10.44-.5,16.91-1.99h6.46c5.97,1.49,12.43,1.99,16.41,1.99,15.42,0,27.85-8.95,27.85-8.95-29.84,0-31.33-83.54-31.33-109.39v.5c-.76-24.91-1.15-49.82-1.18-74.74l-45.77,.04c11.11,27.17,13.64,71.93,13.64,87.13Z"/>
    <path class="cls-39" d="M363.36,331.67h-4.2l-57.83,.06h-5.61c-17.91-37.92-38.32-75.88-57.48-109.64-2.11-3.72-4.2-7.36-6.27-10.96-.2,4.2-.38,8.4-.54,12.61-1.47,36.01-2.19,72.04-2.13,108.07l-11.9,.02-33.88,.02c-5.25-12.85-12.41-21.78-22.16-21.78,0,0,7.96-3.98,17.91-3.98,5.97,0,13.43,1.49,19.89,6.47,0-17.91-.48-35.85-.95-53.78-.02-.48-.02-.93-.04-1.41l-.5,.5c0-1.29,0-2.75-.02-4.32-.16-29.44-2.49-105.58-30.82-105.58,0,0,15.42-8.46,53.22-8.46,9.43,0,21.86,.5,31.81,2.49h34.82c-3.48,5.47,7.2,33.7,23.73,71.8,.92,2.11,1.85,4.24,2.81,6.41,13.29,30.38,29.84,66.27,45.76,101.68,1.45,3.26,2.92,6.53,4.38,9.79Z"/>
    <path class="cls-24" d="M488.07,434.88l.5-1.99c-1.49,25.36-3.48,48.73-5.97,69.62-4.97,16.41-11.93,28.84-23.37,28.84,0,0,12.43,8.45,27.84,8.45,8.45,0,25.86-1.99,32.82-8.45,6.46,6.46,24.37,8.95,31.82,8.95,15.91,0,27.84-8.95,27.84-8.95-10.44,0-17.4-10.44-21.88-24.86-5.73-44.11-8.72-101.53-8.98-159.07l-74.38,.07c11.21,27.15,13.75,72.15,13.75,87.39Z"/>
    <path class="cls-24" d="M611.88,358.8v-.5c10.44,36.3,5.97,44.25,5.97,44.25,13.58-7.82,26.13-24.17,24.13-55.23l-34.67,.03c1.86,3.4,3.43,7.18,4.58,11.44Z"/>
    <path class="cls-39" d="M629.78,242.94s-22.38,7.96-28.84,33.32c-12.93-1.49-33.81-2.49-51.71-.99,.99-29.83,2.49-58.67,4.48-84.03,1.99-10.44,4.47-20.39,8.45-28.34,55.69,3.98,103.43,35.31,114.37,91.99l3.98-112.87c-11.44,3.48-19.89,4.97-28.84,4.97-10.94,0-22.38-1.99-39.78-5.97-4.97-.99-23.37-3.48-42.26-3.48-19.89,0-40.77,2.48-49.72,9.94v.5c-6.96-6.46-24.37-8.95-32.82-8.95-15.41,0-27.84,8.95-27.84,8.95,14.92,0,22.87,20.89,26.85,44.75,3.48,35.8,4.97,78.07,4.97,120.83-6.96-5.97-14.42-7.46-20.89-7.46-9.95,0-17.9,3.98-17.9,3.98,9.67,0,16.81,8.8,22.05,21.5l74.38-.07c-.03-7.32-.03-14.64,.03-21.93,4.48-1.49,9.95-1.99,15.41-1.99,16.2,0,33.75,6.63,43.16,23.87l34.67-.03c-.42-6.46-1.45-13.55-3.25-21.35-4.47-19.39-20.88-44.75-8.95-67.13Z"/>
    <path class="cls-24" d="M736.2,434.42s0-.03,0-.04v.5c0-.15,0-.3,0-.45-.5,9.93-.5,19.36-.99,28.8-2.98,31.82-10.44,68.12-29.83,68.12,0,0,11.93,8.95,27.84,8.95,3.98,0,10.44-.5,16.41-1.99h6.46c6.47,1.49,12.93,1.99,16.91,1.99,15.41,0,27.85-8.95,27.85-8.95-13.92,0-21.38-17.9-25.86-39.78v-144.36l-52.63,.05c11.18,26.87,13.79,71.47,13.84,87.17Z"/>
    <path class="cls-24" d="M878.41,429.91c-6.31-24.61-13.42-53.36-20.37-82.78l-57.97,.05c15.58,58.19,29.61,115.21,46.52,156.31,5.97,14.42,24.37,34.81,46.74,34.81v-1.49l-.99-11.44c0-10.44,.99-20.89,3.48-31.33,9.97-50.43,23.06-98.74,37.92-146.99l-30.42,.03c-8.29,27.56-16.77,55.16-24.91,82.82Z"/>
    <path class="cls-24" d="M1036.03,488.09c-3.52-41.08-5.16-91.13-4.86-141.11l-57.84,.05c.35,50.12-1.23,100.31-4.93,141.56-4.48,22.87-11.93,42.76-26.85,42.76,0,0,12.43,8.95,27.85,8.95,8.45,0,25.86-2.49,32.82-8.95h.5c6.47,6.46,24.37,8.95,31.82,8.95,15.91,0,27.85-8.95,27.85-8.95-14.42,0-22.38-19.89-26.35-43.26Z"/>
    <path class="cls-39" d="M825.2,142h-34.31c-9.95-1.99-22.38-2.49-31.82-2.49-37.79,0-53.2,8.45-53.2,8.45,18.89,0,26.35,33.81,28.84,64.64,1.99,33.32,2.98,66.63,2.98,99.95-6.46-4.97-13.43-6.47-19.89-6.47-9.95,0-17.4,3.98-17.4,3.98,9.61,0,16.72,8.69,21.96,21.27l52.63-.05v-86.36c9.12,27.85,17.29,57.24,25.08,86.34l57.97-.05c-20.44-86.49-39.51-178.83-32.83-189.22Z"/>
    <path class="cls-39" d="M1039.52,176.31c4.47-16.41,11.44-28.34,22.87-28.34,0,0-15.41-8.45-53.2-8.45-9.45,0-21.88,.5-31.82,2.49h-25.86l-.99,4.97c-11,61.16-28.64,122.57-47.19,184.2l30.42-.03c11.08-35.95,23.14-71.86,35.67-108.59,2.34,33.62,3.68,71.07,3.93,108.56l57.84-.05c.33-55.89,3.09-111.7,8.34-154.75Z"/>
  </g>
  <g>
    <path class="cls-81" d="M491.19,594.81s.66-.33,1.49-.33c.5,0,1.12,.12,1.66,.54,0-1.54-.04-3.07-.08-4.61l-.04,.04c0-2.12-.08-9.17-2.57-9.17,0,0,1.29-.71,4.44-.71,.79,0,1.83,.04,2.66,.21h2.9c-.58,.91,3.57,9.42,6.89,16.93,.33-4.11,.54-8.22,.46-12.33-.33-2.12-1-4.07-2.32-4.07,0,0,1.04-.75,2.32-.75,.37,0,1,.08,1.58,.21h.21c.54-.12,1.16-.21,1.54-.21,1.33,0,2.32,.75,2.32,.75-2.53,0-2.61,7.22-2.61,9.13v-.04c-.12,4.15-.12,8.3,0,12.45,0,1.78,0,9.13,2.57,9.13,0,0-1.29,.71-4.44,.71-1.37,0-2.7-.17-2.7-.17h-1c1.54-5.6-4.57-17.6-9.38-25.98-.25,5.44-.29,10.87-.12,16.31v-.04c0,2.16,.12,9.13,2.61,9.13,0,0-1.04,.75-2.32,.75-.33,0-.87-.04-1.37-.17h-.54c-.54,.12-1.08,.17-1.41,.17-1.29,0-2.32-.75-2.32-.75,1.78,0,2.36-3.61,2.53-6.39,.04-.58,.04-1.16,.08-1.74v-.08l-.04,.17c0-1.87-.46-9.09-2.99-9.09Z"/>
    <path class="cls-2" d="M531.98,583.39l-.29,8.96c-.29-1.24-.71-2.32-1.24-3.15-1.95-2.91-5.35-4.02-8.09-4.19-.29,2.82-.46,5.6-.58,8.42,1.37-.13,2.9-.04,3.86,.08,.54-2.03,2.37-2.66,2.37-2.66-1,1.78,.37,3.78,.71,5.35,.83,3.61-.37,5.31-1.7,6.06,0,0,.37-.62-.46-3.49v.04c-.71-2.57-3.15-3.07-4.81-2.7-.08,4.94,.12,9.88,.62,14.81,3.03-.12,6.97-1.24,8.92-4.19,.54-.83,.95-1.91,1.24-3.15l.29,8.96-10.29-.04h-6.43l.04-.37c1.04-9.42,1.04-18.88,0-28.3l-.04-.37,15.89-.08Z"/>
    <path class="cls-80" d="M534.26,612.53c2.41-3.65,5.81-8.47,8.59-13.4-2.53-6.06-5.27-11.7-7.8-15.6h6.72c.91,2.86,2.12,6.6,3.9,11.04,1.83-3.45,2.99-5.31,5.31-11.08h3.69c-3.57,6.56-6.06,10.71-7.76,13.98,1.99,4.48,4.61,9.55,8.18,15.06h-7.18c-1.16-3.44-2.49-7.05-3.9-10.58-2.16,3.86-4.19,7.55-5.6,10.58h-4.15Z"/>
    <path class="cls-90" d="M562.52,583.48v.29c-.21,1.58-.91,11.12-1.12,18.97-.08,3.32,.08,9.25,3.94,9.25-6.06,2.61-8.92-3.69-8.67-7.8,.42-7.14,.25-15.19-.54-20.42v-.29h6.39Zm10.58,21.95c0,8.84-10,9.92-11.91,4.81,0,0,7.93,2.16,7.93-5.23-.04-2.91-.5-10.25-.5-10.25,2.37-.66,2.9-.87,4.44-4.27-.04,5.77,.04,4.9,.04,14.94Zm-1.12-22.45c3.61,.12,4.52,3.24,4.52,3.24-4.52-1.08-3.28,10.37-3.4,13.2l-4.15,.91c-.62-10.12-2.53-17.35,3.03-17.35Z"/>
    <path class="cls-58" d="M592.27,592.32s-1.33-6.68-6.72-6.68c0,0-4.07-.54-4.07,3.49,0,5.19,11.74,6.06,11.74,15.15,0,6.27-5.39,9.21-9.3,8.3-3.94-.95-6.39,.13-6.39,.13l-.66-8.01s2.57,5.44,7.93,5.44c0,0,4.36,.58,4.36-3.4,0-6.89-12.28-8.34-12.28-15.77,0-2.08,1.33-7.84,8.05-7.84,5.31,0,5.23,1.7,7.72,.5l-.37,8.71Z"/>
    <path class="cls-21" d="M606.55,594.47c.54,0,1.16,.12,1.74,.62,0-3.57-.12-7.1-.42-10.08-.33-1.99-1-3.73-2.24-3.73,0,0,1.04-.75,2.32-.75,.71,0,2.16,.21,2.74,.75v-.04c.75-.62,2.49-.83,4.15-.83s3.11,.21,3.53,.29c1.45,.33,2.41,.5,3.32,.5,.75,0,1.45-.13,2.41-.42l-.33,9.42c-.91-4.73-4.9-7.35-9.54-7.68-.33,.66-.54,1.49-.71,2.37-.17,2.12-.29,4.52-.37,7.01,1.49-.13,3.24-.04,4.32,.08,.54-2.12,2.41-2.78,2.41-2.78-1,1.87,.37,3.98,.75,5.6,.87,3.78-.37,5.6-1.74,6.39,0,0,.37-.66-.5-3.69v.04c-.58-2.16-2.37-2.95-3.98-2.95-.46,0-.91,.04-1.29,.17-.04,5.39,.21,10.96,.75,15.11,.37,1.2,.95,2.08,1.83,2.08,0,0-1,.75-2.32,.75-.62,0-2.12-.21-2.66-.75-.58,.54-2.03,.71-2.74,.71-1.29,0-2.32-.71-2.32-.71,.95,0,1.54-1.04,1.95-2.41,.21-1.74,.37-3.69,.5-5.81l-.04,.17c0-1.87-.46-9.09-2.99-9.09,0,0,.66-.33,1.49-.33Z"/>
    <path class="cls-72" d="M633.27,612.53h-6.43l.04-.37c1.04-9.42,1.04-18.88,0-28.3l-.04-.37h6.43l-.04,.37c-1.04,9.42-1.04,18.88,0,28.3l.04,.37Z"/>
    <path class="cls-92" d="M635.51,612.53c1.16-3.15,1.2-19.3,.46-28.68l-.04-.37h7.26c-.54,.87,3.36,8.84,6.39,15.81,.37-4.56,.5-9.5-.33-15.81h4.69c-1.95,9.38-1.58,19.26-.87,28.63l.04,.41h-4.9c.42-6.39-4.9-16.52-9.17-23.82-.37,9.25-.21,21.16,.75,23.82h-4.27Z"/>
    <path class="cls-76" d="M671.53,583.39l-.29,8.96c-.29-1.24-.71-2.32-1.24-3.15-1.95-2.91-5.35-4.02-8.09-4.19-.29,2.82-.46,5.6-.58,8.42,1.37-.13,2.9-.04,3.86,.08,.54-2.03,2.36-2.66,2.36-2.66-1,1.78,.37,3.78,.71,5.35,.83,3.61-.37,5.31-1.7,6.06,0,0,.37-.62-.46-3.49v.04c-.71-2.57-3.15-3.07-4.81-2.7-.08,4.94,.13,9.88,.62,14.81,3.03-.12,6.97-1.24,8.92-4.19,.54-.83,.95-1.91,1.24-3.15l.29,8.96-10.29-.04h-6.43l.04-.37c1.04-9.42,1.04-18.88,0-28.3l-.04-.37,15.89-.08Z"/>
    <path class="cls-38" d="M690.03,592.32s-1.33-6.68-6.72-6.68c0,0-4.07-.54-4.07,3.49,0,5.19,11.74,6.06,11.74,15.15,0,6.27-5.39,9.21-9.3,8.3-3.94-.95-6.39,.13-6.39,.13l-.66-8.01s2.57,5.44,7.93,5.44c0,0,4.36,.58,4.36-3.4,0-6.89-12.28-8.34-12.28-15.77,0-2.08,1.33-7.84,8.05-7.84,5.31,0,5.23,1.7,7.72,.5l-.37,8.71Z"/>
    <path class="cls-30" d="M708.04,592.32s-1.33-6.68-6.72-6.68c0,0-4.07-.54-4.07,3.49,0,5.19,11.74,6.06,11.74,15.15,0,6.27-5.39,9.21-9.3,8.3-3.94-.95-6.39,.13-6.39,.13l-.66-8.01s2.57,5.44,7.93,5.44c0,0,4.36,.58,4.36-3.4,0-6.89-12.28-8.34-12.28-15.77,0-2.08,1.33-7.84,8.05-7.84,5.31,0,5.23,1.7,7.72,.5l-.37,8.71Z"/>
    <path class="cls-97" d="M726.88,583.39l-.29,8.96c-.29-1.24-.71-2.32-1.24-3.15-1.95-2.91-5.35-4.02-8.09-4.19-.29,2.82-.46,5.6-.58,8.42,1.37-.13,2.9-.04,3.86,.08,.54-2.03,2.37-2.66,2.37-2.66-1,1.78,.37,3.78,.71,5.35,.83,3.61-.37,5.31-1.7,6.06,0,0,.37-.62-.46-3.49v.04c-.71-2.57-3.15-3.07-4.81-2.7-.08,4.94,.13,9.88,.62,14.81,3.03-.12,6.97-1.24,8.92-4.19,.54-.83,.95-1.91,1.24-3.15l.29,8.96-10.29-.04h-6.43l.04-.37c1.04-9.42,1.04-18.88,0-28.3l-.04-.37,15.89-.08Z"/>
    <path class="cls-98" d="M741.19,594.47c.54,0,1.12,.12,1.66,.54,0-2.78-.08-5.56-.25-8.34-.21-2.57-.83-5.39-2.41-5.39,0,0,1.29-.71,4.44-.71,.79,0,1.83,.04,2.66,.21h2.86c-.75,1.16,2.37,14.61,4.44,22.7,2.2-7.47,4.69-14.9,6.02-22.28l.08-.42h2.16c.83-.17,1.87-.21,2.66-.21,3.15,0,4.44,.71,4.44,.71-.95,0-1.54,1-1.91,2.36-.83,6.81-.91,17.43-.29,24.69,.33,1.95,1,3.61,2.2,3.61,0,0-1,.75-2.32,.75-.62,0-2.12-.21-2.66-.75h-.04c-.58,.54-2.03,.75-2.74,.75-1.29,0-2.32-.75-2.32-.75,1.24,0,1.87-1.66,2.24-3.57,.54-6.02,.54-14.32,.08-20.87-2.45,7.18-4.69,13.99-6.14,21.33-.21,.87-.29,1.74-.29,2.61l.08,.95v.12c-1.87,0-3.4-1.7-3.9-2.91-2.12-5.15-3.69-13.28-5.98-20.25v19.26c.37,1.83,1,3.32,2.16,3.32,0,0-1.04,.75-2.32,.75-.33,0-.87-.04-1.41-.17h-.54c-.5,.12-1.04,.17-1.37,.17-1.33,0-2.32-.75-2.32-.75,1.62,0,2.24-3.03,2.49-5.69,.04-.79,.04-1.58,.08-2.41v.04c0-1.87-.46-9.09-2.99-9.09,0,0,.62-.33,1.45-.33Z"/>
    <path class="cls-17" d="M788.62,597.21c0,5.64-1.62,15.73-9.34,15.73-4.77,0-9.34-5.23-9.34-14.28,0-5.6,1.74-15.6,9.34-15.6,4.77,0,9.34,5.31,9.34,14.15Zm-13.2,1.95c.79,7.8,3.15,12.03,5.1,11.7,3.2-.5,3.03-9.25,2.61-14.15-.79-7.59-3.11-11.91-5.06-11.58-3.15,.46-3.07,9.21-2.66,14.03Z"/>
    <path class="cls-8" d="M790.28,612.53c1.16-3.15,1.2-19.3,.46-28.68l-.04-.37h7.26c-.54,.87,3.36,8.84,6.39,15.81,.37-4.56,.5-9.5-.33-15.81h4.69c-1.95,9.38-1.58,19.26-.87,28.63l.04,.41h-4.9c.42-6.39-4.9-16.52-9.17-23.82-.37,9.25-.21,21.16,.75,23.82h-4.28Z"/>
    <path class="cls-44" d="M821.2,583.52c3.19,0,6.39,2.08,6.39,7.3,0,9.71-.12,9.01-.08,14.28,.25,2.49,.95,4.52,2.74,4.52,.37,0,.75-.08,1.2-.25,0,0-1.45,3.82-5.6,3.94-5.77,0-4.98-7.34-3.74-14.32v-.12h-5.44c.04,4.44,.29,8.84,.79,13.28l.04,.37h-6.43l.04-.37c1.04-9.42,1.04-18.88,0-28.3l-.04-.37h6.43c1.12,.04,2.49,.04,3.69,.04Zm1.2,13.4c.25-2.03,.54-4.32,.54-5.64,0-5.15-3.53-6.35-5.56-6.64-.41,4.07-.66,8.18-.71,12.28h5.73Z"/>
    <path class="cls-4" d="M832.69,612.15c1.04-9.42,1.04-18.88,0-28.3l-.04-.37h6.43l-.04,.37v.08c.71-.42,2.03-.79,3.57-.79,3.36,0,7.64,1.74,7.64,8.3,0,5.02-2.53,7.05-5.27,8.26,1.29,3.9,3.65,9.67,6.93,9.67,.41,0,.83-.08,1.29-.29,0,0-.95,4.11-4.73,4.23-5.48,0-5.39-6.31-7.22-12.2-1.45,.58-2.57,1.29-2.86,2.57,.13,2.82,.37,5.64,.66,8.47l.04,.37h-6.43l.04-.37Zm11.74-20.54c0-7.51-5.19-6.43-5.56-6.35-.46,4.94-.67,9.88-.58,14.81,1.45-2.41,6.14-3.11,6.14-8.47Z"/>
    <path class="cls-12" d="M861.82,583.19c.71,0,1.37,.12,1.95,.33,1.16,.33,1.95,.71,2.82,.71,.46,0,1-.13,1.62-.46l-.17,4.9-.12,3.36c-.87-3.49-3.24-6.64-5.6-7.14-.62-.08-1.2-.04-1.74,.21-4.98,2.41-4.98,23.57,4.4,23.57,3.36,0,5.35-3.57,5.35-3.57,0,1.66-2.53,7.84-8.51,7.84-4.77,0-9.46-5.19-9.46-14.23,0-5.56,1.91-15.52,9.46-15.52Z"/>
    <path class="cls-88" d="M878.75,612.53h-6.43l.04-.37c1.04-9.42,1.04-18.88,0-28.3l-.04-.37h6.43l-.04,.37c-1.04,9.42-1.04,18.88,0,28.3l.04,.37Zm-3.61-9.88c0-4.07,2.66-6.56,6.89-6.56l4.36-.04,.04,2.24-4.4,.04c-1.74,0-4.65,.54-4.65,4.32h-2.24Zm14.36,9.88h-6.43l.04-.37c1.04-9.42,1.04-18.88,0-28.3l-.04-.37h6.43l-.04,.37c-1.04,9.42-1.04,18.88,0,28.3l.04,.37Z"/>
  </g>
  <g>
    <g>
      <g>
        <path class="cls-20" d="M915.24,603.15c.8,3.52,3.17,5.52,7.47,5.52,4.73,0,6.56-2.3,6.56-5.13s-1.38-4.73-7.22-6.17c-6.16-1.52-8.57-3.57-8.57-7.52s2.82-7.23,8.87-7.23,8.96,3.76,9.32,7.25h-2.9c-.57-2.74-2.33-4.82-6.54-4.82-3.72,0-5.76,1.71-5.76,4.59s1.7,3.96,6.69,5.18c7.84,1.93,9.1,5.03,9.1,8.46,0,4.25-3.12,7.76-9.69,7.76-6.94,0-9.69-3.93-10.23-7.89h2.9Z"/>
        <g class="cls-64">
          <rect class="cls-52" x="912.34" y="582.62" width="19.92" height="28.42"/>
        </g>
      </g>
      <g>
        <path class="cls-77" d="M943.59,585.52h-9.14v-2.51h21.17v2.51h-9.17v25.19h-2.86v-25.19Z"/>
        <g class="cls-36">
          <rect class="cls-74" x="934.45" y="583.01" width="21.17" height="27.7"/>
        </g>
      </g>
      <g>
        <path class="cls-56" d="M982.56,596.68c0,7.58-4.14,14.42-12.77,14.42-7.96,0-12.5-6.29-12.5-14.24s4.51-14.24,12.8-14.24c7.69,0,12.47,5.92,12.47,14.07Zm-22.28,.06c0,6.2,3.31,11.86,9.65,11.86,6.83,0,9.64-5.6,9.64-11.88s-3.18-11.61-9.59-11.61c-6.74,0-9.7,5.53-9.7,11.63Z"/>
        <g class="cls-22">
          <rect class="cls-82" x="960.28" y="585.11" width=".45" height="23.49"/>
          <rect class="cls-16" x="960.73" y="585.11" width=".94" height="23.49"/>
          <rect class="cls-85" x="961.67" y="585.11" width=".94" height="23.49"/>
          <rect class="cls-86" x="962.61" y="585.11" width=".94" height="23.49"/>
          <rect class="cls-45" x="963.56" y="585.11" width=".94" height="23.49"/>
          <rect class="cls-29" x="964.5" y="585.11" width=".94" height="23.49"/>
          <rect class="cls-83" x="965.44" y="585.11" width=".94" height="23.49"/>
          <rect class="cls-65" x="966.39" y="585.11" width=".94" height="23.49"/>
          <rect class="cls-27" x="967.33" y="585.11" width=".94" height="23.49"/>
          <rect class="cls-18" x="968.27" y="585.11" width=".94" height="23.49"/>
          <rect class="cls-42" x="969.21" y="585.11" width=".94" height="23.49"/>
          <rect class="cls-84" x="970.16" y="585.11" width=".94" height="23.49"/>
          <rect class="cls-35" x="971.1" y="585.11" width=".94" height="23.49"/>
          <rect class="cls-14" x="972.04" y="585.11" width=".94" height="23.49"/>
          <rect class="cls-50" x="972.99" y="585.11" width=".94" height="23.49"/>
          <rect class="cls-79" x="973.93" y="585.11" width=".94" height="23.49"/>
          <rect class="cls-7" x="974.87" y="585.11" width=".94" height="23.49"/>
          <rect class="cls-93" x="975.82" y="585.11" width=".94" height="23.49"/>
          <rect class="cls-62" x="976.76" y="585.11" width=".94" height="23.49"/>
          <rect class="cls-96" x="977.7" y="585.11" width=".94" height="23.49"/>
          <rect class="cls-95" x="978.65" y="585.11" width=".92" height="23.49"/>
          <rect class="cls-28" x="957.28" y="582.62" width="2.5" height="28.49"/>
          <rect class="cls-41" x="959.78" y="582.62" width=".94" height="28.49"/>
          <rect class="cls-31" x="960.73" y="582.62" width=".94" height="28.49"/>
          <rect class="cls-3" x="961.67" y="582.62" width=".94" height="28.49"/>
          <rect class="cls-15" x="962.61" y="582.62" width=".94" height="28.49"/>
          <rect class="cls-23" x="963.56" y="582.62" width=".94" height="28.49"/>
          <rect class="cls-61" x="964.5" y="582.62" width=".94" height="28.49"/>
          <rect class="cls-63" x="965.44" y="582.62" width=".94" height="28.49"/>
          <rect class="cls-13" x="966.39" y="582.62" width=".94" height="28.49"/>
          <rect class="cls-94" x="967.33" y="582.62" width=".94" height="28.49"/>
          <rect class="cls-9" x="968.27" y="582.62" width=".94" height="28.49"/>
          <rect class="cls-40" x="969.21" y="582.62" width=".94" height="28.49"/>
          <rect class="cls-25" x="970.16" y="582.62" width=".94" height="28.49"/>
          <rect class="cls-47" x="971.1" y="582.62" width=".94" height="28.49"/>
          <rect class="cls-49" x="972.04" y="582.62" width=".94" height="28.49"/>
          <rect class="cls-32" x="972.99" y="582.62" width=".94" height="28.49"/>
          <rect class="cls-59" x="973.93" y="582.62" width=".94" height="28.49"/>
          <rect class="cls-66" x="974.87" y="582.62" width=".94" height="28.49"/>
          <rect class="cls-73" x="975.82" y="582.62" width=".94" height="28.49"/>
          <rect class="cls-33" x="976.76" y="582.62" width=".94" height="28.49"/>
          <rect class="cls-48" x="977.7" y="582.62" width=".94" height="28.49"/>
          <rect class="cls-10" x="978.65" y="582.62" width=".94" height="28.49"/>
          <rect class="cls-67" x="979.59" y="582.62" width=".94" height="28.49"/>
          <rect class="cls-89" x="980.53" y="582.62" width=".94" height="28.49"/>
          <rect class="cls-54" x="981.48" y="582.62" width=".94" height="28.49"/>
          <rect class="cls-75" x="982.42" y="582.62" width=".14" height="28.49"/>
        </g>
      </g>
      <g>
        <path class="cls-78" d="M991.32,598.1v12.6h-2.84v-27.7h10.33c5.56,0,8.52,3,8.52,7.34,0,3.56-2.08,5.8-4.97,6.5,2.58,.64,4.51,2.42,4.51,7.18v1.12c0,1.93-.13,4.45,.36,5.56h-2.81c-.51-1.19-.43-3.38-.43-5.86v-.66c0-4.28-1.24-6.09-6.39-6.09h-6.29Zm0-2.48h6.39c4.58,0,6.66-1.72,6.66-5.12,0-3.2-2.08-5.01-6.15-5.01h-6.9v10.13Z"/>
        <g class="cls-71">
          <rect class="cls-51" x="991.32" y="585.49" width=".53" height="10.13"/>
          <rect class="cls-91" x="991.85" y="585.49" width="12.51" height="10.13"/>
          <rect class="cls-19" x="988.48" y="583.01" width=".54" height="27.7"/>
          <rect class="cls-69" x="989.02" y="583.01" width=".94" height="27.7"/>
          <rect class="cls-6" x="989.97" y="583.01" width=".94" height="27.7"/>
          <rect class="cls-11" x="990.91" y="583.01" width=".94" height="27.7"/>
          <rect class="cls-43" x="991.85" y="583.01" width="15.48" height="27.7"/>
        </g>
      </g>
      <g>
        <path class="cls-60" d="M1030.59,597.4h-13.97v10.81h15.32l-.39,2.51h-17.73v-27.7h17.45v2.51h-14.65v9.37h13.97v2.51Z"/>
        <g class="cls-37">
          <rect class="cls-46" x="1013.83" y="583.01" width="18.11" height="27.7"/>
        </g>
      </g>
    </g>
    <g>
      <path class="cls-20" d="M915.24,603.15c.8,3.52,3.17,5.52,7.47,5.52,4.73,0,6.56-2.3,6.56-5.13s-1.38-4.73-7.22-6.17c-6.16-1.52-8.57-3.57-8.57-7.52s2.82-7.23,8.87-7.23,8.96,3.76,9.32,7.25h-2.9c-.57-2.74-2.33-4.82-6.54-4.82-3.72,0-5.76,1.71-5.76,4.59s1.7,3.96,6.69,5.18c7.84,1.93,9.1,5.03,9.1,8.46,0,4.25-3.12,7.76-9.69,7.76-6.94,0-9.69-3.93-10.23-7.89h2.9Z"/>
      <path class="cls-34" d="M943.59,585.52h-9.14v-2.51h21.17v2.51h-9.17v25.19h-2.86v-25.19Z"/>
      <path class="cls-5" d="M982.56,596.68c0,7.58-4.14,14.42-12.77,14.42-7.96,0-12.5-6.29-12.5-14.24s4.51-14.24,12.8-14.24c7.69,0,12.47,5.92,12.47,14.07Zm-22.28,.06c0,6.2,3.31,11.86,9.65,11.86,6.83,0,9.64-5.6,9.64-11.88s-3.18-11.61-9.59-11.61c-6.74,0-9.7,5.53-9.7,11.63Z"/>
      <path class="cls-70" d="M991.32,598.1v12.6h-2.84v-27.7h10.33c5.56,0,8.52,3,8.52,7.34,0,3.56-2.08,5.8-4.97,6.5,2.58,.64,4.51,2.42,4.51,7.18v1.12c0,1.93-.13,4.45,.36,5.56h-2.81c-.51-1.19-.43-3.38-.43-5.86v-.66c0-4.28-1.24-6.09-6.39-6.09h-6.29Zm0-2.48h6.39c4.58,0,6.66-1.72,6.66-5.12,0-3.2-2.08-5.01-6.15-5.01h-6.9v10.13Z"/>
      <path class="cls-57" d="M1030.59,597.4h-13.97v10.81h15.32l-.39,2.51h-17.73v-27.7h17.45v2.51h-14.65v9.37h13.97v2.51Z"/>
    </g>
  </g>
</svg>